HIERARCHY
ROOT Hips
{
  OFFSET 0 0 0
  CHANNELS 6 Xposition Yposition Zposition Zrotation Yrotation Xrotation
  JOINT LeftThigh
  {
    OFFSET 8.409438 0 -5.917753
    CHANNELS 3 Zrotation Yrotation Xrotation
    JOINT LeftLeg
    {
      OFFSET 0 0 -42.358652
      CHANNELS 3 Zrotation Yrotation Xrotation
      JOINT LeftFoot
      {
        OFFSET 0 0 -39.357303
        CHANNELS 3 Zrotation Yrotation Xrotation
      }
    }
  }
  JOINT RightThigh
  {
    OFFSET -8.409438 0 -5.917753
    CHANNELS 3 Zrotation Yrotation Xrotation
    JOINT RightLeg
    {
      OFFSET 0 0 -42.358652
      CHANNELS 3 Zrotation Yrotation Xrotation
      JOINT RightFoot
      {
        OFFSET 0 0 -39.357303
        CHANNELS 3 Zrotation Yrotation Xrotation
      }
    }
  }
  JOINT SpineLow
  {
    OFFSET 0 0 4.719101
    CHANNELS 3 Zrotation Yrotation Xrotation
    JOINT SpineMid
    {
      OFFSET 0 0 12.899191
      CHANNELS 3 Zrotation Yrotation Xrotation
      JOINT Chest
      {
        OFFSET 0 0 12.899191
        CHANNELS 3 Zrotation Yrotation Xrotation
        JOINT LeftShoulder
        {
          OFFSET 7.550562 1.41573 9.438202
          CHANNELS 3 Zrotation Yrotation Xrotation
          JOINT LeftArm
          {
            OFFSET 9.155056 0 4.247191
            CHANNELS 3 Zrotation Yrotation Xrotation
            JOINT LeftForearm
            {
              OFFSET 0 0 25.771955
              CHANNELS 3 Zrotation Yrotation Xrotation
              JOINT LeftHand
              {
                OFFSET 0 0 25.197169
                CHANNELS 3 Zrotation Yrotation Xrotation
              }
            }
          }
        }
        JOINT RightShoulder
        {
          OFFSET -7.550562 1.41573 9.438202
          CHANNELS 3 Zrotation Yrotation Xrotation
          JOINT RightArm
          {
            OFFSET -9.155056 0 4.247191
            CHANNELS 3 Zrotation Yrotation Xrotation
            JOINT RightForearm
            {
              OFFSET 0 0 -25.771955
              CHANNELS 3 Zrotation Yrotation Xrotation
              JOINT RightHand
              {
                OFFSET 0 0 -25.197169
                CHANNELS 3 Zrotation Yrotation Xrotation
              }
            }
          }
        }
        JOINT Neck
        {
          OFFSET 0 0 15.101124
          CHANNELS 3 Zrotation Yrotation Xrotation
          JOINT Head
          {
            OFFSET 0 0 11.325843
            CHANNELS 3 Zrotation Yrotation Xrotation
            End Site
            {
              OFFSET 0 0 14.157303
            }
          }
        }
      }
    }
  }
}
MOTION
Frames: 17
Frame Time: 0.0
0.0  89.887642  0.0  -0.967979  -19.741414  -96.993503  18.688453  -17.204751  3.255259  4.019496  2.047812  18.790478  1.561042  0.311487  0.482589  -3.342564  6.577995  4.667437  -17.940763  5.616883  2.851327  3.730569  1.530614  -0.633968  -2.609022  0.067087  -0.002542  -7.131524  0.182856  -0.014171  -7.131524  0.182856  -0.014171  -28.302237  9.799739  4.547449  -149.224576  58.808479  -73.333424  -45.597611  45.602556  87.627571  130.373916  18.885878  -33.006092  -10.983192  -13.074392  8.564098  57.440969  18.126719  31.573484  -3.407703  18.165495  -109.418366  85.412931  -1.831643  -32.393254  -6.335982  -8.549411  -16.362349  -4.977818  -6.248844  -12.339543  
0.0  89.887642  0.0  -0.328481  -15.521506  -97.119601  17.455925  -16.484922  3.193273  3.047096  2.168409  18.180461  1.345611  0.322671  0.476289  -4.288636  7.25681  5.922541  -19.636818  5.853558  1.676034  3.460308  1.522482  -0.695258  -2.656182  0.091084  0.104984  -7.260031  0.260144  0.276571  -7.260031  0.260144  0.276571  -28.317983  7.012039  2.241654  -142.005877  62.030874  -63.590776  -42.55186  29.458548  92.409072  132.660451  28.521698  -21.307149  -11.488504  -12.076784  8.709513  53.186005  18.630931  36.254102  -5.913274  16.539792  -113.338631  84.764966  -2.478005  -35.415243  -8.011987  -7.534056  -17.242575  -6.219859  -5.431009  -13.015014  
0.0  89.887642  0.0  0.505165  -11.057354  -97.239069  16.300236  -15.468071  3.12456  -0.374789  2.591541  16.249847  2.845469  0.269071  1.793629  -6.570824  8.066541  6.67765  -20.080298  6.410607  0.863887  3.148533  1.518982  -0.680157  -2.890833  0.191272  0.332803  -7.899174  0.561692  0.88537  -7.899174  0.561692  0.885371  -27.119178  3.145512  0.047896  -131.757718  64.507522  -51.397308  -41.72177  13.066215  95.467268  137.698113  34.78183  -6.953939  -10.980766  -11.54606  9.21306  49.48558  18.675199  39.911456  -7.192696  15.628341  -114.360023  86.02244  -3.34852  -35.422101  -8.762769  -6.959634  -18.793166  -6.78658  -4.95726  -14.181013  
0.0  89.887642  0.0  1.348416  -6.967469  -97.031468  14.986298  -14.383966  2.896223  -1.778806  2.336077  15.723053  1.890572  0.290028  1.636532  -9.354497  9.061704  6.538313  -20.093174  6.982  0.489118  2.714369  1.521656  -0.645094  -3.215101  0.280794  0.50418  -8.782288  0.832869  1.338111  -8.782289  0.832869  1.338111  -24.718231  -0.79203  -1.319816  -118.031237  66.07116  -36.793807  -41.276047  -3.174592  97.757191  143.074564  36.950929  8.327277  -9.569442  -11.106298  10.534902  45.657955  19.221064  43.447528  -7.42132  14.326188  -113.802063  87.650216  -4.092585  -32.786805  -8.734709  -6.497366  -20.540858  -6.772357  -4.58686  -15.485884  
0.0  89.887642  0.0  2.073764  -3.99864  -97.092986  13.597628  -13.61355  3.269106  -3.423855  2.356023  14.835855  1.759989  0.358023  1.603241  -12.013798  10.082345  6.242998  -20.255779  7.548134  0.425718  2.619964  1.533286  -0.53435  -3.403521  0.224012  0.573658  -9.297577  0.691498  1.533039  -9.297578  0.691498  1.533038  -22.876243  -3.734928  -2.336253  -100.109832  66.976052  -21.15592  -41.543901  -18.684357  99.483772  143.848576  35.226565  21.976462  -10.525589  -8.829866  11.207583  45.257619  18.44855  47.862779  -5.490936  11.918801  -111.403218  88.790802  -5.398789  -28.722737  -8.426389  -5.794179  -22.19463  -6.535792  -4.046908  -16.71549  
0.0  89.887642  0.0  2.242855  -3.650539  -97.051841  13.809533  -13.607555  3.751468  -4.631676  2.448154  13.796927  2.2562  0.390292  1.557065  -12.949072  10.407706  5.540804  -20.343352  7.993802  0.933859  2.826724  1.598248  -0.531085  -3.35318  -0.162209  0.582226  -9.168964  -0.361761  1.610415  -9.168964  -0.361761  1.610415  -20.592898  -5.797852  -3.106952  -81.971781  66.51876  -7.684558  -41.074616  -27.58741  100.183692  138.302737  34.144668  26.030685  -10.707935  -5.181681  11.189727  45.822197  17.108173  52.077372  -0.179036  7.561422  -108.257619  90.209371  -8.094955  -23.443324  -7.629651  -4.077685  -23.622963  -5.888232  -2.768635  -17.763902  
0.0  89.887642  0.0  2.040389  -3.645816  -96.921277  13.368561  -13.763674  4.255035  -4.391031  2.308535  12.963396  2.594329  0.415061  1.415614  -14.471502  10.451287  4.473472  -19.865239  8.249321  1.839158  3.183603  1.71885  -0.558806  -3.418587  -0.64828  0.652933  -9.362951  -1.675609  1.872524  -9.36295  -1.675609  1.872524  -16.743146  -8.202641  -3.633099  -68.852631  65.574031  0.326093  -42.645953  -32.923128  100.306448  130.852039  30.733059  28.517362  -9.648842  -1.634914  9.88824  47.076751  14.78735  56.119154  4.14735  1.976034  -105.480878  90.777675  -11.355256  -19.927618  -6.640033  -2.912882  -25.476135  -5.111136  -1.911847  -19.137276  
0.0  89.887642  0.0  1.731309  -3.926274  -97.04954  12.442567  -13.891147  4.993524  -2.785555  1.963377  12.357867  2.74786  0.433934  1.362407  -16.324009  10.796005  3.561285  -18.388652  8.103387  3.02945  3.397818  1.739016  -0.542188  -3.272023  -0.897239  0.782581  -8.975198  -2.341272  2.256757  -8.975197  -2.341272  2.256757  -14.336649  -11.694899  -3.599384  -58.487587  64.272695  4.982152  -40.725162  -36.005709  99.117482  122.476207  28.823602  29.973293  -9.943931  0.51891  8.963428  48.955407  11.92239  58.812124  6.46009  -2.77004  -102.326641  88.006348  -13.827761  -17.943414  -6.710284  -2.669444  -26.741534  -5.16055  -1.712314  -20.08467  
0.0  89.887642  0.0  1.350049  -4.807018  -96.936057  11.962118  -13.869503  5.424657  -0.727495  1.536071  11.83818  3.026692  0.379693  1.429359  -17.727302  11.159853  2.755741  -16.527748  7.629751  3.951965  3.637091  1.626604  -0.496892  -2.905178  -0.91987  0.786145  -7.973251  -2.415514  2.256642  -7.973251  -2.415514  2.256642  -13.250769  -14.861613  -2.169918  -49.003386  61.015448  9.324098  -35.728958  -39.134467  95.185075  113.32378  24.809427  31.258653  -10.598972  0.362593  9.714196  50.359535  10.265256  60.379679  8.818809  -7.659454  -99.631021  82.128884  -15.388799  -16.645069  -7.671943  -3.456479  -27.254592  -5.920679  -2.255658  -20.481912  
0.0  89.887642  0.0  1.16964  -5.934137  -96.121272  12.314141  -13.37594  4.989054  0.973596  1.038311  11.428739  3.313814  0.199997  1.533343  -18.603256  11.416553  1.437981  -14.557343  7.041486  4.653195  3.693269  1.493358  -0.386656  -2.539041  -0.845392  0.625024  -6.964009  -2.242094  1.795626  -6.964009  -2.242094  1.795626  -12.029386  -18.506276  -0.890021  -40.647454  57.423478  13.775139  -26.511612  -42.881925  86.732327  103.977545  16.977721  30.20496  -11.072454  -0.327976  10.178039  51.592108  8.897383  61.433123  12.9593  -15.135369  -98.497202  75.560131  -15.82807  -17.441223  -8.597003  -4.491534  -27.126957  -6.65996  -2.994502  -20.402716  
0.0  89.887642  0.0  1.310574  -7.05841  -95.623404  13.117207  -12.460461  4.791533  2.120166  0.366346  10.98474  3.582106  -0.130988  1.748924  -18.77183  11.871187  0.269033  -12.730121  6.537433  5.474452  3.572147  1.366207  -0.325622  -2.209752  -0.756337  0.583584  -6.059718  -2.011941  1.663197  -6.059718  -2.011941  1.663197  -10.649821  -21.483968  -0.957658  -31.136383  53.944803  20.94647  -13.721201  -47.445521  74.699383  95.057195  6.441071  26.876181  -11.312031  -0.956287  9.664623  52.074691  7.904922  61.680256  19.418984  -25.419118  -100.359735  72.624342  -16.370763  -16.349628  -9.298388  -5.342082  -27.018427  -7.222491  -3.604654  -20.335971  
0.0  89.887642  0.0  1.300758  -7.688438  -96.461732  13.220411  -11.734978  6.068382  2.990499  -0.58605  10.319365  3.598472  -0.507957  2.054118  -18.474243  12.48362  0.553719  -11.497091  6.141142  6.237465  3.56228  1.27168  -0.306782  -1.927026  -0.721032  0.741505  -5.290237  -1.910146  2.083326  -5.290237  -1.910145  2.083326  -9.965689  -23.809464  -1.336483  -19.941714  49.973171  30.269979  0.095981  -50.662418  60.103048  88.882196  -4.952639  21.771992  -11.9693  -1.20479  8.917879  51.903064  7.87635  61.542792  25.099124  -32.2559  -102.575098  70.415659  -16.130661  -10.908247  -10.04295  -5.759785  -26.758831  -7.796764  -3.89007  -20.153331  
0.0  89.887642  0.0  1.061444  -8.51002  -97.047709  13.287803  -11.280522  7.118439  3.572268  -1.502179  9.736527  3.597874  -0.763738  2.183921  -17.227472  12.341988  1.150878  -11.203029  6.130468  6.560902  3.596493  1.148342  -0.276515  -1.686134  -0.801457  0.761892  -4.6351  -2.136111  2.137952  -4.6351  -2.136111  2.137953  -9.95086  -27.139699  -1.708902  -6.154572  49.688226  42.618231  9.772725  -53.696433  45.606435  86.827035  -14.064609  17.091863  -12.267825  -1.049323  8.997864  51.181577  8.872534  61.420864  26.355328  -33.917825  -102.262576  70.691408  -16.053994  -7.339642  -10.411407  -5.592666  -26.10602  -8.059564  -3.759047  -19.666029  
0.0  89.887642  0.0  1.219738  -8.927508  -96.947768  12.862692  -10.604206  7.45555  3.706194  -2.108185  9.325991  3.943969  -0.731312  2.151455  -16.778589  12.598864  0.818362  -10.843696  5.980848  6.805395  3.472746  1.03597  -0.232135  -1.527999  -0.846054  0.64318  -4.200326  -2.270712  1.811374  -4.200326  -2.270713  1.811374  -9.347404  -29.978048  -0.479409  2.79291  51.322114  51.102192  12.607472  -57.031044  36.787814  84.371709  -16.649295  15.504982  -12.233414  -1.015234  9.302503  50.541243  9.412848  61.745711  22.874478  -31.25757  -99.534615  72.92891  -15.901191  -7.951637  -10.480941  -5.170599  -25.461815  -8.08813  -3.449414  -19.178774  
0.0  89.887642  0.0  1.397958  -8.963113  -97.248676  12.057764  -10.413881  8.185416  3.57939  -2.242781  8.904287  4.462372  -0.550167  2.094606  -16.546753  12.924807  1.129222  -10.851715  5.958704  6.696945  3.559367  0.694248  -0.058566  -1.40221  -0.840967  0.56337  -3.853551  -2.264998  1.588658  -3.85355  -2.264998  1.588658  -8.870155  -29.374592  2.577895  1.729489  51.568885  50.381165  6.162408  -58.628847  39.352147  83.501809  -13.196307  15.886442  -12.643817  -1.072362  9.719804  50.686592  8.816991  62.243485  17.908856  -26.58528  -96.995339  75.626913  -15.608302  -9.72068  -10.401719  -4.664903  -24.745052  -8.001933  -3.084362  -18.634337  
0.0  89.887642  0.0  1.492507  -8.836437  -97.867998  11.302182  -10.624445  9.270015  3.461773  -2.044566  8.36538  4.786164  -0.394549  2.014739  -16.277901  13.202678  2.106869  -11.069702  5.977211  6.220816  3.481423  0.58245  -0.053125  -1.35755  -0.879728  0.587161  -3.733319  -2.370648  1.654407  -3.733319  -2.370648  1.654407  -8.055826  -25.925271  2.963698  -4.571276  49.560676  44.915209  -6.789412  -56.480783  51.196081  85.197168  -8.518636  16.834437  -12.840444  -1.027731  10.094873  51.00937  8.3921  62.441116  14.107809  -22.148411  -95.467437  77.253082  -15.019763  -11.713806  -9.888117  -4.018446  -24.409191  -7.588266  -2.624438  -18.370096  
0.0  89.887642  0.0  0.967826  -7.726406  -97.98228  11.431455  -11.76031  10.48635  2.02863  -1.533411  6.869225  4.737831  -0.31189  1.920414  -16.944784  12.875047  3.002097  -11.422033  5.961249  5.56482  3.346443  0.485011  -0.037678  -1.440426  -1.007449  0.552473  -3.962113  -2.719554  1.570347  -3.962113  -2.719554  1.570346  -8.459735  -22.544321  1.733221  -8.444624  49.961939  42.136264  -15.745314  -55.449587  60.366538  88.057585  -5.130762  17.61319  -13.369798  -0.963925  10.169427  51.374456  8.339409  62.445547  12.865405  -20.015917  -95.358857  78.999899  -14.162525  -12.83813  -9.402695  -3.362478  -24.213743  -7.196873  -2.153662  -18.211922  
